<svg width="28" height="28" viewBox="0 0 24 24" fill="none" xmlns="http://www.w3.org/2000/svg">
  <path d="M6.75 6.25C5.92157 6.25 5.25 6.92157 5.25 7.75C5.25 8.57843 5.92157 9.25 6.75 9.25C7.57843 9.25 8.25 8.57843 8.25 7.75C8.25 6.92157 7.57843 6.25 6.75 6.25Z" fill="currentColor"/>
  <path d="M11 6.625C11 6.27982 11.2798 6 11.625 6H18.375C18.7202 6 19 6.27982 19 6.625V8.875C19 9.22018 18.7202 9.5 18.375 9.5H11.625C11.2798 9.5 11 9.22018 11 8.875V6.625Z" fill="currentColor"/>
  <path d="M6.75 10.5C5.92157 10.5 5.25 11.1716 5.25 12C5.25 12.8284 5.92157 13.5 6.75 13.5C7.57843 13.5 8.25 12.8284 8.25 12C8.25 11.1716 7.57843 10.5 6.75 10.5Z" fill="currentColor"/>
  <path d="M11 10.875C11 10.5298 11.2798 10.25 11.625 10.25H18.375C18.7202 10.25 19 10.5298 19 10.875V13.125C19 13.4702 18.7202 13.75 18.375 13.75H11.625C11.2798 13.75 11 13.4702 11 13.125V10.875Z" fill="currentColor"/>
  <path d="M6.75 14.75C5.92157 14.75 5.25 15.4216 5.25 16.25C5.25 17.0784 5.92157 17.75 6.75 17.75C7.57843 17.75 8.25 17.0784 8.25 16.25C8.25 15.4216 7.57843 14.75 6.75 14.75Z" fill="currentColor"/>
  <path d="M11 15.125C11 14.7798 11.2798 14.5 11.625 14.5H16.375C16.7202 14.5 17 14.7798 17 15.125V17.375C17 17.7202 16.7202 18 16.375 18H11.625C11.2798 18 11 17.7202 11 17.375V15.125Z" fill="currentColor"/>
</svg>
