<svg width="28" height="28" viewBox="0 0 24 24" fill="none" xmlns="http://www.w3.org/2000/svg">
  <path d="M12 4.25C12.6213 4.25 13.125 4.75368 13.125 5.375V10.875H18.625C19.2463 10.875 19.75 11.3787 19.75 12C19.75 12.6213 19.2463 13.125 18.625 13.125H13.125V18.625C13.125 19.2463 12.6213 19.75 12 19.75C11.3787 19.75 10.875 19.2463 10.875 18.625V13.125H5.375C4.75368 13.125 4.25 12.6213 4.25 12C4.25 11.3787 4.75368 10.875 5.375 10.875H10.875V5.375C10.875 4.75368 11.3787 4.25 12 4.25Z" fill="currentColor"/>
</svg>
